<svg width="170" height="170" viewBox="0 0 170 170" fill="none" xmlns="http://www.w3.org/2000/svg">
<path d="M150.37 130.25C147.92 135.91 145.02 141.12 141.66 145.91C137.08 152.44 133.33 156.96 130.44 159.47C125.96 163.59 121.16 165.7 116.02 165.82C112.33 165.82 107.88 164.77 102.7 162.64C97.503 160.52 92.727 159.47 88.36 159.47C83.78 159.47 78.868 160.52 73.614 162.64C68.352 164.77 64.114 165.88 60.872 165.99C55.942 166.2 51.03 164.03 46.126 159.47C42.996 156.74 39.081 152.06 34.391 145.43C29.361 138.35 25.223 130.14 21.981 120.78C18.511 110.67 16.771 100.88 16.771 91.402C16.771 80.545 19.117 71.182 23.816 63.334C27.508 57.03 32.42 52.06 38.57 48.41C44.72 44.76 51.363 42.9 58.518 42.78C62.433 42.78 67.568 43.99 73.948 46.37C80.308 48.76 84.394 49.97 86.185 49.97C87.525 49.97 92.062 48.554 99.755 45.73C107.03 43.113 113.17 42.03 118.2 42.456C131.83 43.556 142.07 48.929 148.88 58.609C136.69 65.994 130.66 76.339 130.78 89.609C130.89 99.947 134.64 108.549 142.01 115.379C145.35 118.549 149.08 120.999 153.23 122.739C152.33 125.349 151.38 127.849 150.37 130.249V130.25ZM119.11 7.24002C119.11 15.342 116.15 22.907 110.25 29.91C103.13 38.233 94.518 43.043 85.18 42.284C85.06 41.312 84.99 40.289 84.99 39.214C84.99 31.436 88.377 23.112 94.39 16.306C97.392 12.86 101.21 9.99602 105.84 7.70902C110.46 5.45602 114.83 4.21102 118.94 3.99902C119.06 5.08102 119.11 6.16402 119.11 7.23902V7.24002Z" fill="#FF0000"/>
</svg>
