<svg width="288" height="264" viewBox="0 0 288 264" fill="none" xmlns="http://www.w3.org/2000/svg">
<g clip-path="url(#clip0)">
<path d="M115.5 36.848V227.152L253.03 132L115.5 36.848ZM282.112 142.28L110.112 261.28C101.822 267.016 90.5 261.082 90.5 251V13C90.5 2.91798 101.821 -3.01602 110.112 2.71998L282.112 121.72C289.296 126.69 289.296 137.31 282.112 142.28Z" fill="white"/>
<path d="M42.5 107H149.5C151.622 107 153.657 106.157 155.157 104.657C156.657 103.157 157.5 101.122 157.5 99C157.5 96.8783 156.657 94.8434 155.157 93.3431C153.657 91.8429 151.622 91 149.5 91H42.5C40.3783 91 38.3434 91.8429 36.8431 93.3431C35.3429 94.8434 34.5 96.8783 34.5 99C34.5 101.122 35.3429 103.157 36.8431 104.657C38.3434 106.157 40.3783 107 42.5 107ZM42.5 177H149.5C151.622 177 153.657 176.157 155.157 174.657C156.657 173.157 157.5 171.122 157.5 169C157.5 166.878 156.657 164.843 155.157 163.343C153.657 161.843 151.622 161 149.5 161H42.5C40.3783 161 38.3434 161.843 36.8431 163.343C35.3429 164.843 34.5 166.878 34.5 169C34.5 171.122 35.3429 173.157 36.8431 174.657C38.3434 176.157 40.3783 177 42.5 177ZM8 143H176C178.122 143 180.157 142.157 181.657 140.657C183.157 139.157 184 137.122 184 135C184 132.878 183.157 130.843 181.657 129.343C180.157 127.843 178.122 127 176 127H8C5.87827 127 3.84344 127.843 2.34315 129.343C0.842855 130.843 0 132.878 0 135C0 137.122 0.842855 139.157 2.34315 140.657C3.84344 142.157 5.87827 143 8 143V143Z" fill="white"/>
</g>
<defs>
<clipPath id="clip0">
<rect width="288" height="264" fill="white"/>
</clipPath>
</defs>
</svg>
